<?xml version="1.0" encoding="UTF-8"?>
<svg id="svg" xmlns="http://www.w3.org/2000/svg" version="1.1" viewBox="0 0 400 400">
  <!-- Generator: Adobe Illustrator 29.6.1, SVG Export Plug-In . SVG Version: 2.1.1 Build 9)  -->
  <defs>
    <style>
      .st0 {
        fill: #050505;
      }

      .st0, .st1, .st2, .st3 {
        fill-rule: evenodd;
      }

      .st1 {
        fill: #807c7c;
      }

      .st2 {
        fill: #14fb2f;
      }

      .st3 {
        fill: #96edb9;
      }
    </style>
  </defs>
  <g id="svgg">
    <path id="path1" class="st2" d="M177.3,175.4v4.3h15.6v42.5h4.9c2.7.2,5,.2,5.1,0,0,0,.2-9.7.2-21.4v-21.2h14.8v-8.2h-17.9c-9.8,0-19-.1-20.3-.2h-2.4c0-.1,0,4.1,0,4.1M221.6,182.9c.1,6.3.3,17.7.3,25.4v14h9.4v-11.6c0-7.3.2-12.2.4-13.2,1.6-5.8,10.9-7.2,14.3-2.2.9,1.3.9,1.5.9,14.1v12.8h4.9c0,.1,4.9.2,4.9.2v-14.3c-.1,0-.2-14.3-.2-14.3l-1-2.2c-4-8.6-15.9-10.4-22.4-3.5-1,1.1-1.8,1.9-1.9,1.9s0-4.2,0-9.4v-9.4c.1,0-4.8,0-4.8,0h-5l.3,11.4M341.4,180.6c-.2.5-1,2.7-1.9,5-1.2,3.1-11.6,29.6-12.9,32.7-.1.4.5.5,2.7.5h2.9s7.7-19.5,7.7-19.5l7.7-19.5h-2.9c-2.6,0-2.9,0-3.2.9M316.2,185.2c-1.1.4-3,1.6-4.2,2.7l-2.2,1.9.2-2.5.2-2.5h-9.9v37.9h9.8v-10.1c0-15,1.8-18.1,11-19.1l2.2-.2v-8.9h-2.6c-1.6,0-3.4.3-4.6.8M261.4,199.3c.1,12.6.2,14.8.8,16.3,3.1,8.3,15.3,10,22.2,3,1-1,1.9-1.9,2-1.9,0,0,0,1.3,0,2.8v2.8c-.1,0,4.6,0,4.6,0h4.7c0,0,0-18.8,0-18.8v-18.9h-9.4v10.5c0,16.5-1.5,19.8-8.7,19.5-6-.3-6.3-1.2-6.5-17.2v-12.8h-9.9l.2,14.5M350.6,189.3c-1,1.4-1.8,2.6-1.8,2.7,0,.1,2.5,2.5,6.6,6.4l1.8,1.6-4.3,4-4.3,4,1.9,2.5c2.4,3.2,1.6,3.6,8.3-3.9l5.8-6.4-5.8-6.7c-6.8-7.8-6-7.4-8.3-4.2"/>
    <path id="path2" class="st0" d="M55.5,196.9v25.8l12-.2c9.7-.1,12.5-.3,14.4-.8,24.1-6.8,24.9-41.7,1.2-49.5-2.6-.9-3.4-.9-15.1-1h-12.4c0-.1,0,25.7,0,25.7M77.9,180.7c14.6,3.8,16.4,25.1,2.7,31.5-2.6,1.2-2.9,1.3-8.9,1.5l-6.2.2v-33.8h5c3.2,0,5.8.2,7.3.6M117.4,184.4c-18.8,3.6-19.4,33.5-.8,38.4,8.6,2.2,18-1.4,21.1-8.2,1.4-3,1.5-3-3.5-3h-4.4l-.9,1.2c-4.3,5.8-14.9,2.3-15.9-5.2l-.3-1.8h26.4l-.2-4.6c-.5-12.7-8.9-19.2-21.6-16.8M139.5,184.7c0,.2,3.1,8.7,6.8,19l6.8,18.7h5.7c0,.1,5.7.2,5.7.2l.4-1.1c.2-.6,3.3-9.1,6.9-18.9,3.6-9.8,6.5-17.9,6.5-18.1s-2.3-.2-5.2-.2h-5.2l-2.5,7.5c-3.7,11.3-6.4,18.7-6.6,18.6-.1,0-2.2-5.9-4.5-13.1l-4.3-13.1h-5.2c-2.8,0-5.2.1-5.2.3M124.3,191.8c2.8.8,5.4,4,5.4,6.7v1.1s-8.2,0-8.2,0c-9.3,0-8.9.2-7.3-3.3,1.9-4.1,5.7-5.7,10.1-4.5"/>
    <path id="path3" class="st3" d="M199.8,171.4c13.7,0,18,.2,18.3.6.3.4.3.3.2-.1-.1-.5-2.5-.6-18.3-.6h-18.1s17.9.1,17.9.1M223.9,171.4c1.5,0,3.7,0,5.1,0,1.3,0,.1-.1-2.7-.1-2.8,0-3.9,0-2.4.1M177,175.5c0,2.3,0,4.3.2,4.4.2,0,.2-1.2.2-2.8-.2-5.2-.3-5.9-.4-1.6M218.1,174.4c0,.9,0,1.2.2.7,0-.5,0-1.2,0-1.6,0-.4-.2,0-.2.9M218,177.8c0,1-.3,1.9-.6,2-.4.2-.4.2,0,.2.7,0,.9-.8.8-2.6-.2-1.5-.2-1.4-.2.3M204.6,180c.7,0,1.9,0,2.7,0,.8,0,.2-.2-1.3-.2-1.5,0-2.2,0-1.5.2M213.2,180c.7,0,1.8,0,2.5,0,.7,0,.1-.2-1.3-.2s-2,0-1.3.2M65.8,187.3c0,3.9,0,5.4.1,3.4s0-5.2,0-7c0-1.9-.1-.2-.1,3.6M320.2,184.3c.5,0,1.2,0,1.6,0,.4,0,0-.2-.9-.2-.9,0-1.2,0-.7.2M271.1,195.4l.2,11v-10.7c.2-5.9,0-10.9,0-11-.2-.2-.2,4.7-.1,10.7M286.1,184.9c-.1.3-.1,5.3,0,11.2v10.7c.1,0,.2-11,.2-11,0-8.4.2-11,.6-11.2.4-.2.4-.2,0-.2-.3,0-.6.2-.7.5M300.9,184.6c.4,0,1,0,1.4,0,.4,0,0-.2-.7-.2s-1.1,0-.7.2M221.7,204.6v17.9h4.7s4.7,0,4.7,0h-4.6c0-.1-4.6-.3-4.6-.3v-17.8c-.1,0-.2-17.8-.2-17.8v17.9M65.7,198.8c0,1.2,0,1.7.2,1.1,0-.6,0-1.6,0-2.1,0-.6-.2-.1-.2,1.1M139.2,202.5c0,.9,0,1.2.2.7,0-.5,0-1.2,0-1.6,0-.4-.2,0-.2.9M327.8,219c.8,0,2.1,0,2.9,0,.8,0,.1-.2-1.5-.2s-2.3,0-1.5.2M195.2,222.6c1.3,0,3.5,0,4.9,0,1.3,0,.2-.1-2.4-.1s-3.8,0-2.4.1M249.1,222.6c1.3,0,3.5,0,4.9,0,1.3,0,.2-.1-2.4-.1s-3.8,0-2.4.1"/>
    <path id="path4" class="st1" d="M139.1,204.8v1.1s-13.2.1-13.2.1h-13.2c0,.1,13.2.2,13.2.2,14.1,0,13.9.1,13.4-1.7-.1-.5-.2-.3-.2.4"/>
  </g>
</svg>